<?xml version="1.0" standalone="no"?>
<!DOCTYPE svg PUBLIC "-//W3C//DTD SVG 20010904//EN"
 "http://www.w3.org/TR/2001/REC-SVG-20010904/DTD/svg10.dtd">
<svg version="1.0" xmlns="http://www.w3.org/2000/svg"
 width="700.000000pt" height="700.000000pt" viewBox="0 0 700.000000 700.000000"
 preserveAspectRatio="xMidYMid meet">
<metadata>
Created by potrace 1.14, written by Peter Selinger 2001-2017
</metadata>
<g transform="translate(0.000000,700.000000) scale(0.100000,-0.100000)"
fill="#000000" stroke="none">
<path d="M940 6198 c-150 -22 -277 -152 -327 -333 -30 -111 -34 -142 -38 -290
-3 -112 10 -278 29 -379 35 -188 115 -480 155 -571 5 -11 22 -54 37 -95 14
-41 37 -98 49 -125 43 -95 58 -150 61 -223 5 -118 -24 -192 -132 -338 -51 -68
-72 -94 -184 -224 -253 -292 -322 -387 -322 -444 0 -42 34 -102 64 -112 30 -9
85 -7 143 6 28 7 58 13 68 15 67 14 233 67 347 111 257 99 294 116 1130 541
612 310 776 356 954 266 93 -47 155 -115 210 -228 51 -108 64 -154 70 -249 8
-121 -31 -197 -124 -239 -89 -40 -141 -26 -305 78 -133 86 -232 115 -370 110
-125 -4 -152 -14 -475 -167 -69 -33 -150 -71 -180 -85 -60 -28 -181 -85 -360
-171 -63 -30 -151 -71 -195 -92 -266 -124 -905 -448 -1008 -511 -26 -16 -49
-29 -52 -29 -3 0 -37 -20 -76 -45 -75 -49 -101 -87 -101 -151 0 -53 28 -90
128 -165 525 -395 1553 -879 2267 -1069 65 -17 125 -29 133 -26 24 9 15 36
-29 87 -54 61 -128 185 -155 259 -97 264 -5 535 251 739 72 57 163 109 222
126 34 11 46 10 84 -7 102 -44 229 -155 271 -238 45 -89 30 -153 -59 -250 -97
-105 -138 -226 -146 -434 -6 -136 6 -169 75 -203 66 -32 106 -36 411 -38 407
-2 511 13 556 81 15 24 18 46 16 144 -2 136 -22 248 -57 322 -14 29 -55 89
-92 132 -36 44 -69 89 -74 100 -16 43 -3 114 30 166 63 99 238 230 308 232 66
2 227 -96 338 -207 259 -258 276 -579 45 -884 -31 -41 -61 -81 -68 -90 -8 -10
-9 -22 -3 -30 7 -13 25 -11 121 13 289 71 678 214 1109 407 543 243 1232 655
1291 771 38 75 14 150 -64 201 -184 121 -783 424 -1602 809 -93 44 -213 101
-265 125 -357 169 -372 174 -498 178 -141 4 -247 -27 -376 -112 -38 -25 -91
-57 -117 -70 -108 -56 -232 -14 -288 97 -53 105 6 349 120 496 93 121 257 182
404 150 117 -25 351 -124 655 -279 860 -437 930 -471 1160 -560 243 -94 501
-155 558 -131 68 28 90 100 52 174 -26 50 -231 306 -322 401 -45 47 -188 232
-224 289 -55 87 -62 108 -71 213 -5 64 15 181 37 212 12 16 96 233 128 330 70
208 123 413 137 530 4 28 8 57 10 65 2 8 7 47 11 85 32 338 -29 610 -168 738
-241 223 -648 60 -1092 -437 -98 -110 -184 -163 -291 -181 -22 -3 -643 -6
-1380 -6 -1467 0 -1395 -3 -1507 58 -27 15 -75 54 -106 87 -148 158 -305 307
-385 367 -214 161 -400 229 -557 207z m1640 -3040 c86 -27 168 -106 197 -192
44 -132 -7 -282 -121 -357 -247 -161 -558 74 -464 353 54 161 223 246 388 196z
m2076 -19 c104 -49 176 -157 175 -261 -1 -57 -2 -61 -20 -126 -18 -65 -110
-153 -186 -179 -154 -51 -314 17 -383 164 -53 115 -26 261 65 348 49 47 85 66
153 80 73 15 123 9 196 -26z"/>
</g>
</svg>
